<svg xmlns="http://www.w3.org/2000/svg" viewBox="0 0 512 512" role="img" aria-labelledby="title desc">
  <title id="title">ふしぎノート</title>
  <desc id="desc">研究ノートと芽のアイコン</desc>
  <rect width="512" height="512" rx="88" fill="#fffaf0"/>
  <path d="M132 98h226c24 0 43 19 43 43v257c0 24-19 43-43 43H132c-24 0-43-19-43-43V141c0-24 19-43 43-43z" fill="#f7f1e3" stroke="#22201c" stroke-width="18"/>
  <path d="M149 156h198M149 212h133M149 357h214" stroke="#2f72c7" stroke-width="18" stroke-linecap="round"/>
  <path d="M254 316c-12-54 16-98 73-120 10 54-14 99-73 120z" fill="#2f8f5b"/>
  <path d="M254 316c-44-25-61-67-39-111 44 20 64 61 39 111z" fill="#efb93f"/>
  <path d="M254 316v54" stroke="#22201c" stroke-width="18" stroke-linecap="round"/>
  <circle cx="365" cy="151" r="29" fill="#d85f49"/>
</svg>
